<?xml version="1.0" encoding="UTF-8"?>
<svg version="1.1" xmlns="http://www.w3.org/2000/svg" width="400" height="132">
<path d="M0 0 C132 0 264 0 400 0 C400 43.56 400 87.12 400 132 C268 132 136 132 0 132 C0 88.44 0 44.88 0 0 Z " fill="#FEFEFE" transform="translate(0,0)"/>
<path d="M0 0 C9.41256045 5.90873084 14.82324377 12.99316881 18.30859375 23.44921875 C19.29261553 39.40172568 19.29261553 39.40172568 15.30859375 46.44921875 C14.90640625 47.18527344 14.50421875 47.92132813 14.08984375 48.6796875 C9.79654476 55.79940833 3.99979148 61.78312145 -4.25390625 63.88671875 C-5.38828125 64.07234375 -6.52265625 64.25796875 -7.69140625 64.44921875 C-7.60438499 66.72077373 -7.49621103 68.99152618 -7.37890625 71.26171875 C-7.32089844 72.52628906 -7.26289062 73.79085937 -7.203125 75.09375 C-7.07167048 78.40832813 -7.07167048 78.40832813 -5.18432617 79.73706055 C-2.87541602 82.38503878 -3.30252695 84.74734487 -3.29296875 88.19921875 C-3.29009857 88.85374023 -3.28722839 89.50826172 -3.28427124 90.18261719 C-3.28223257 91.56446194 -3.28774879 92.94633568 -3.30029297 94.328125 C-3.31635189 96.44206325 -3.30044024 98.55408988 -3.28125 100.66796875 C-3.28323247 102.01172297 -3.28707623 103.35547599 -3.29296875 104.69921875 C-3.29635254 105.92125 -3.29973633 107.14328125 -3.30322266 108.40234375 C-3.69140625 111.44921875 -3.69140625 111.44921875 -4.76708984 113.34570312 C-7.76688348 115.06596032 -10.44767285 114.83683915 -13.87890625 114.85546875 C-14.57781982 114.86630493 -15.2767334 114.87714111 -15.99682617 114.88830566 C-18.98381879 114.93415935 -21.97072624 114.94564795 -24.95800781 114.96044922 C-27.14028904 114.97613882 -29.32184314 115.00913734 -31.50390625 115.04296875 C-32.80972656 115.05005859 -34.11554687 115.05714844 -35.4609375 115.06445312 C-38.97058679 115.4824706 -39.4900602 115.91361923 -41.69140625 118.44921875 C-45.25390625 118.32421875 -45.25390625 118.32421875 -48.69140625 117.44921875 C-51.18567105 113.70782156 -50.99738816 110.75529122 -50.9921875 106.421875 C-50.99647263 105.63654892 -51.00075775 104.85122284 -51.00517273 104.042099 C-51.01091267 102.38199833 -51.01141875 100.7218725 -51.00708008 99.06176758 C-51.00392211 96.52446476 -51.0273751 93.98833036 -51.05273438 91.45117188 C-51.05500764 89.83724105 -51.05571074 88.2233071 -51.0546875 86.609375 C-51.06389725 85.85197525 -51.07310699 85.0945755 -51.08259583 84.31422424 C-51.05454611 81.11349603 -50.88376902 78.80745881 -49.35620117 75.96264648 C-47.69140625 74.44921875 -47.69140625 74.44921875 -44.69140625 74.07421875 C-41.69140625 74.44921875 -41.69140625 74.44921875 -38.69140625 76.44921875 C-37.37140625 76.44921875 -36.05140625 76.44921875 -34.69140625 76.44921875 C-34.03140625 74.13921875 -33.37140625 71.82921875 -32.69140625 69.44921875 C-29.22640625 68.95421875 -29.22640625 68.95421875 -25.69140625 68.44921875 C-25.83333183 66.50964385 -25.83333183 66.50964385 -26.69140625 64.44921875 C-28.79462708 63.08605186 -28.79462708 63.08605186 -31.37890625 62.07421875 C-36.22845179 59.82686838 -39.24685337 57.52829453 -42.69140625 53.44921875 C-42.69140625 52.78921875 -42.69140625 52.12921875 -42.69140625 51.44921875 C-43.35140625 51.44921875 -44.01140625 51.44921875 -44.69140625 51.44921875 C-49.9392066 41.89072525 -51.46591078 32.17713505 -49.69140625 21.44921875 C-47.47186316 15.01107389 -43.90034061 9.85677859 -38.69140625 5.44921875 C-37.96953125 4.76859375 -37.24765625 4.08796875 -36.50390625 3.38671875 C-26.09414778 -3.78444819 -11.63213962 -5.59048869 0 0 Z " fill="#FCFAFB" transform="translate(64.69140625,10.55078125)"/>
<path d="M0 0 C9.41256045 5.90873084 14.82324377 12.99316881 18.30859375 23.44921875 C19.29261553 39.40172568 19.29261553 39.40172568 15.30859375 46.44921875 C14.90640625 47.18527344 14.50421875 47.92132813 14.08984375 48.6796875 C9.79654476 55.79940833 3.99979148 61.78312145 -4.25390625 63.88671875 C-5.38828125 64.07234375 -6.52265625 64.25796875 -7.69140625 64.44921875 C-7.60438499 66.72077373 -7.49621103 68.99152618 -7.37890625 71.26171875 C-7.32089844 72.52628906 -7.26289062 73.79085937 -7.203125 75.09375 C-7.07167048 78.40832813 -7.07167048 78.40832813 -5.18432617 79.73706055 C-2.87541602 82.38503878 -3.30252695 84.74734487 -3.29296875 88.19921875 C-3.29009857 88.85374023 -3.28722839 89.50826172 -3.28427124 90.18261719 C-3.28223257 91.56446194 -3.28774879 92.94633568 -3.30029297 94.328125 C-3.31635189 96.44206325 -3.30044024 98.55408988 -3.28125 100.66796875 C-3.28323247 102.01172297 -3.28707623 103.35547599 -3.29296875 104.69921875 C-3.29635254 105.92125 -3.29973633 107.14328125 -3.30322266 108.40234375 C-3.69140625 111.44921875 -3.69140625 111.44921875 -4.76708984 113.34570312 C-7.76688348 115.06596032 -10.44767285 114.83683915 -13.87890625 114.85546875 C-14.57781982 114.86630493 -15.2767334 114.87714111 -15.99682617 114.88830566 C-18.98381879 114.93415935 -21.97072624 114.94564795 -24.95800781 114.96044922 C-27.14028904 114.97613882 -29.32184314 115.00913734 -31.50390625 115.04296875 C-32.80972656 115.05005859 -34.11554687 115.05714844 -35.4609375 115.06445312 C-38.97058679 115.4824706 -39.4900602 115.91361923 -41.69140625 118.44921875 C-45.25390625 118.32421875 -45.25390625 118.32421875 -48.69140625 117.44921875 C-51.18567105 113.70782156 -50.99738816 110.75529122 -50.9921875 106.421875 C-50.99647263 105.63654892 -51.00075775 104.85122284 -51.00517273 104.042099 C-51.01091267 102.38199833 -51.01141875 100.7218725 -51.00708008 99.06176758 C-51.00392211 96.52446476 -51.0273751 93.98833036 -51.05273438 91.45117188 C-51.05500764 89.83724105 -51.05571074 88.2233071 -51.0546875 86.609375 C-51.06389725 85.85197525 -51.07310699 85.0945755 -51.08259583 84.31422424 C-51.05454611 81.11349603 -50.88376902 78.80745881 -49.35620117 75.96264648 C-47.69140625 74.44921875 -47.69140625 74.44921875 -44.69140625 74.07421875 C-41.69140625 74.44921875 -41.69140625 74.44921875 -38.69140625 76.44921875 C-37.37140625 76.44921875 -36.05140625 76.44921875 -34.69140625 76.44921875 C-34.03140625 74.13921875 -33.37140625 71.82921875 -32.69140625 69.44921875 C-29.22640625 68.95421875 -29.22640625 68.95421875 -25.69140625 68.44921875 C-25.83333183 66.50964385 -25.83333183 66.50964385 -26.69140625 64.44921875 C-28.79462708 63.08605186 -28.79462708 63.08605186 -31.37890625 62.07421875 C-36.22845179 59.82686838 -39.24685337 57.52829453 -42.69140625 53.44921875 C-42.69140625 52.78921875 -42.69140625 52.12921875 -42.69140625 51.44921875 C-43.35140625 51.44921875 -44.01140625 51.44921875 -44.69140625 51.44921875 C-49.9392066 41.89072525 -51.46591078 32.17713505 -49.69140625 21.44921875 C-47.47186316 15.01107389 -43.90034061 9.85677859 -38.69140625 5.44921875 C-37.96953125 4.76859375 -37.24765625 4.08796875 -36.50390625 3.38671875 C-26.09414778 -3.78444819 -11.63213962 -5.59048869 0 0 Z M-39.69140625 11.44921875 C-45.46657024 18.50521119 -46.67213245 25.75867936 -46.1484375 34.6328125 C-45.20294479 42.52808072 -42.49644524 48.89657276 -36.69140625 54.44921875 C-27.27180823 60.95869706 -20.16484508 62.33471017 -8.69140625 61.44921875 C-0.8056409 59.50990461 5.55288085 54.40357862 10.140625 47.8203125 C14.96415285 39.33677756 15.98639998 31.03616173 13.5703125 21.55078125 C10.30767377 12.60873435 4.56202909 6.9819641 -3.69140625 2.44921875 C-7.37662807 1.12064093 -11.11914479 1.28124016 -15.00390625 1.26171875 C-16.27878906 1.24753906 -17.55367187 1.23335937 -18.8671875 1.21875 C-27.845565 1.7598371 -33.45219632 5.21000882 -39.69140625 11.44921875 Z " fill="#711652" transform="translate(64.69140625,10.55078125)"/>
<path d="M0 0 C0.66 0.66 1.32 1.32 2 2 C2.33 0.68 2.66 -0.64 3 -2 C6.96 -2 10.92 -2 15 -2 C15 12.52 15 27.04 15 42 C11.04 42 7.08 42 3 42 C2.67 41.01 2.34 40.02 2 39 C1.1028125 39.7115625 1.1028125 39.7115625 0.1875 40.4375 C-4.8919467 44.06567621 -11.01587738 43.66827765 -17 43 C-23.30663564 40.60924923 -28.15478654 35.76189645 -31.109375 29.73828125 C-33.22463666 23.2347794 -33.27567406 14.79757934 -30.4375 8.5 C-27.27781318 3.31544347 -23.17382739 -0.13046904 -17.5625 -2.375 C-10.93603925 -3.53753697 -5.94906221 -3.68275279 0 0 Z " fill="#1A1616" transform="translate(219,56)"/>
<path d="M0 0 C1.20269531 -0.02578125 2.40539062 -0.0515625 3.64453125 -0.078125 C10.90853717 0.59461645 16.39945984 4.98632671 21.1875 10.25 C24.52962232 15.60183707 25.32798435 22.10251117 24.1875 28.25 C21.08348168 35.57804326 16.71217151 40.98766425 9.5625 44.5625 C1.10868566 46.28457329 -6.10748937 46.08359185 -13.6875 41.72265625 C-19.28208977 37.84552327 -21.69844831 33.25649728 -23.36328125 26.828125 C-24.46063542 20.53026628 -23.54567957 15.94691325 -20.1875 10.5 C-14.86963093 3.17031058 -9.0571042 0.11574574 0 0 Z " fill="#191515" transform="translate(312.8125,53.75)"/>
<path d="M0 0 C3.96 0 7.92 0 12 0 C12.33 6.27 12.66 12.54 13 19 C14.98 18.01 16.96 17.02 19 16 C25.06895411 15.13057118 30.92847197 15.28912583 36 19 C40.22266314 24.47804948 41.1485119 28.54861674 41.09765625 35.29296875 C41.0962413 35.99899734 41.09482635 36.70502594 41.09336853 37.43244934 C41.08777764 39.68417626 41.07522688 41.93580321 41.0625 44.1875 C41.05748382 45.71549335 41.05292112 47.24348827 41.04882812 48.77148438 C41.0378112 52.51436135 41.02055287 56.25716373 41 60 C37.04 60 33.08 60 29 60 C28.97494385 59.10692139 28.9498877 58.21384277 28.92407227 57.29370117 C28.82889814 53.97814546 28.72966717 50.66276271 28.62768555 47.34741211 C28.58439207 45.91288997 28.54271301 44.47831816 28.50268555 43.04370117 C28.44484733 40.9808048 28.38119247 38.91815717 28.31640625 36.85546875 C28.27974854 35.61434326 28.24309082 34.37321777 28.20532227 33.09448242 C28.12855879 29.96446653 28.12855879 29.96446653 27 27 C25.41820385 26.89132698 23.83422847 26.81410173 22.25 26.75 C21.36828125 26.70359375 20.4865625 26.6571875 19.578125 26.609375 C16.10142408 27.13614787 15.15412353 28.24962583 13 31 C12.35928071 34.1830881 12.35928071 34.1830881 12.390625 37.734375 C12.35839844 39.02988281 12.32617188 40.32539062 12.29296875 41.66015625 C12.27822531 43.02343302 12.26390778 44.38671445 12.25 45.75 C12.22183186 47.12894376 12.19190322 48.50785275 12.16015625 49.88671875 C12.08943275 53.25787216 12.03674496 56.6283328 12 60 C8.04 60 4.08 60 0 60 C0 40.2 0 20.4 0 0 Z " fill="#161212" transform="translate(136,38)"/>
<path d="M0 0 C2.01936151 1.20090817 3.69287297 2.47018414 5.4375 4.0390625 C6.448125 4.8846875 7.45875 5.7303125 8.5 6.6015625 C9.139375 7.4059375 9.77875 8.2103125 10.4375 9.0390625 C10.05859375 11.19140625 10.05859375 11.19140625 9.4375 13.0390625 C6.45308664 13.98285134 3.56450108 14.78479079 0.4375 15.0390625 C-1.9375 13.2265625 -1.9375 13.2265625 -3.5625 11.0390625 C-8.12848329 9.51706807 -11.96142714 9.29189516 -16.375 11.3515625 C-19.00593935 13.38114429 -20.41122291 15.00123128 -20.8984375 18.34375 C-20.99130094 24.00507658 -20.99130094 24.00507658 -18.6875 29.1015625 C-15.10309428 32.36969713 -12.4987578 32.30708139 -7.8125 32.26953125 C-4.82050153 31.96305918 -2.98452459 30.76908006 -0.5625 29.0390625 C2.7148709 27.83485106 4.49733793 28.1473283 7.6875 29.4765625 C8.74710937 29.90775391 8.74710937 29.90775391 9.828125 30.34765625 C10.35921875 30.57582031 10.8903125 30.80398437 11.4375 31.0390625 C7.96211429 36.7868158 3.8648711 41.49957671 -2.5625 44.0390625 C-10.3880595 44.86787791 -18.1934037 45.15428749 -24.5625 40.0390625 C-30.35982516 34.51834928 -33.80003239 29.54273912 -34.0625 21.3515625 C-33.91345041 14.61948923 -32.00472696 10.08014098 -27.5625 5.0390625 C-20.12516678 -1.88582876 -9.55941251 -3.58477969 0 0 Z " fill="#191515" transform="translate(378.5625,54.9609375)"/>
<path d="M0 0 C4.29 0 8.58 0 13 0 C16.33333333 6.66666667 19.66666667 13.33333333 23 20 C24.48293582 17.23116804 25.96068862 14.4596027 27.4375 11.6875 C27.85837891 10.90181641 28.27925781 10.11613281 28.71289062 9.30664062 C29.11572266 8.54931641 29.51855469 7.79199219 29.93359375 7.01171875 C30.4913147 5.96697388 30.4913147 5.96697388 31.06030273 4.90112305 C32.12176989 2.86282996 32.12176989 2.86282996 33 0 C37.62 0 42.24 0 47 0 C45.3701609 4.07459774 43.59418425 7.96459151 41.625 11.875 C41.12129883 12.87950195 41.12129883 12.87950195 40.60742188 13.90429688 C35.52109429 23.99564308 30.25054267 33.99345475 25 44 C24.01 44 23.02 44 22 44 C21.51120361 43.04746338 21.02240723 42.09492676 20.51879883 41.11352539 C18.68453036 37.53999655 16.84828416 33.96748696 15.01147461 30.39526367 C14.22057994 28.8564735 13.43020385 27.31741668 12.64038086 25.77807617 C11.49733404 23.5505447 10.35272493 21.32382744 9.20703125 19.09765625 C8.65403854 18.02265366 8.65403854 18.02265366 8.08987427 16.92593384 C5.75730997 12.4109224 3.34824138 7.95302406 0.78393555 3.56420898 C0 2 0 2 0 0 Z " fill="#1B1717" transform="translate(240,54)"/>
<path d="M0 0 C7.00891582 4.75466193 10.68867644 10.64748552 12.98828125 18.74609375 C14.23958884 28.68436368 12.7865068 36.51904271 6.98828125 44.74609375 C1.20832785 51.33502773 -4.53766228 55.22818901 -13.2734375 56.0546875 C-22.38327855 56.37968723 -29.0348101 54.80010587 -36.76171875 50.05859375 C-44.50231603 42.10297988 -47.52198717 34.00444324 -47.50927734 22.93164062 C-47.25147452 14.82290716 -44.37158835 9.10596335 -38.6328125 3.3671875 C-27.67702586 -5.98286553 -12.32947124 -7.6849714 0 0 Z M-37.38671875 8.05859375 C-43.19196171 15.58928393 -44.0450081 23.37603802 -43.01171875 32.74609375 C-40.91104742 40.32351532 -34.96915595 46.24636485 -28.32421875 50.18359375 C-21.42546599 53.2660152 -13.69772616 52.64425617 -6.69921875 50.18359375 C0.52152328 46.86877478 5.40635003 41.65939846 8.33203125 34.26953125 C10.29779017 26.71072018 9.83645863 18.61124219 5.98828125 11.74609375 C1.47302143 5.40032319 -3.55543928 1.86230833 -11.01171875 -0.25390625 C-21.9180366 -1.46856064 -29.77501681 -0.03580148 -37.38671875 8.05859375 Z " fill="#F4EDF2" transform="translate(66.01171875,16.25390625)"/>
<path d="M0 0 C1.32 0.33 2.64 0.66 4 1 C4.33 3.64 4.66 6.28 5 9 C10.61 9.33 16.22 9.66 22 10 C22 10.99 22 11.98 22 13 C14.08 13.495 14.08 13.495 6 14 C6.33 14.99 6.66 15.98 7 17 C13.93 17.495 13.93 17.495 21 18 C21 19.32 21 20.64 21 22 C16.05 22 11.1 22 6 22 C6 23.32 6 24.64 6 26 C10.95 26 15.9 26 21 26 C21 27.32 21 28.64 21 30 C16.05 30 11.1 30 6 30 C6 31.32 6 32.64 6 34 C10.95 34 15.9 34 21 34 C21 35.32 21 36.64 21 38 C11.43 38 1.86 38 -8 38 C-8 28.76 -8 19.52 -8 10 C-6.02 9.01 -4.04 8.02 -2 7 C-0.55032098 3.4306283 -0.55032098 3.4306283 0 0 Z " fill="#FAF8FA" transform="translate(35,83)"/>
<path d="M0 0 C7.7003787 3.21611742 12.62721403 7.79024501 16.30078125 15.2734375 C18.47766164 22.24237673 18.33263161 29.9423191 15.30078125 36.5859375 C11.51836912 43.21314974 5.94631766 48.52549489 -1.4375 50.83203125 C-9.19415733 52.34585211 -15.92026737 52.16913213 -22.6640625 47.82421875 C-28.07221963 43.70322378 -33.27771271 39.21597147 -34.69921875 32.2734375 C-35.56034234 24.06047123 -35.18209672 16.39845863 -30.69921875 9.2734375 C-22.43170072 -0.0319179 -12.19283363 -3.28200731 0 0 Z M-27.4375 12.39453125 C-31.39430877 18.28686876 -31.43887221 24.39376918 -30.69921875 31.2734375 C-29.27808835 35.66984091 -27.21629581 39.23638146 -23.69921875 42.2734375 C-23.03921875 42.2734375 -22.37921875 42.2734375 -21.69921875 42.2734375 C-21.69921875 42.9334375 -21.69921875 43.5934375 -21.69921875 44.2734375 C-14.40233587 47.45753185 -8.16292786 48.62334181 -0.44921875 46.0859375 C5.38884206 43.62536316 9.72817705 38.67977943 12.359375 32.98046875 C14.38395771 27.15874337 14.27045224 20.61213456 11.73828125 14.9609375 C8.81178089 9.92487505 4.75953504 6.53140455 -0.38671875 3.8984375 C-12.17142938 1.67490719 -19.61230562 3.15437021 -27.4375 12.39453125 Z " fill="#701451" transform="translate(57.69921875,16.7265625)"/>
<path d="M0 0 C4.06610902 2.10835283 6.29054187 3.77663286 8 8 C8.64908204 11.75784338 8.84103267 15.41510576 7.01953125 18.84765625 C4.7147643 21.73393363 2.39796197 23.63576248 -1 25 C-5.00320131 25.41487723 -8.56079129 24.9878072 -11.91796875 22.68359375 C-14.93762449 19.59221222 -16.41610853 16.83316929 -16.75 12.5 C-16.45620848 7.98488819 -14.57357478 5.51155629 -11.5078125 2.3125 C-8.10014245 -0.65376201 -4.30927682 -0.584716 0 0 Z " fill="#F8F8F8" transform="translate(317,64)"/>
<path d="M0 0 C3.76110572 0.02155361 5.955079 0.3286021 8.875 2.75 C12.82053953 6.99904257 12.64591769 10.02746696 12.6015625 15.66796875 C12.21506071 19.28750576 11.05721048 21.02239102 8.3125 23.375 C3.96449571 24.82433476 -0.14810501 25.02037724 -4.6875 24.375 C-8.41163058 21.65948812 -10.63925986 18.8824326 -11.6875 14.375 C-11.85066531 9.66240182 -11.29492538 7.08872482 -8.1875 3.4375 C-7.3625 2.756875 -6.5375 2.07625 -5.6875 1.375 C-4.05531064 -0.25718936 -2.24806873 0.08736889 0 0 Z " fill="#F9F9F9" transform="translate(209.6875,63.625)"/>
<path d="M0 0 C0.74636719 -0.01933594 1.49273437 -0.03867187 2.26171875 -0.05859375 C6.49333404 -0.02114583 8.07031629 0.2755993 11.46875 3.0390625 C14.64468455 7.08227148 14.94540984 9.4582458 14.5 14.625 C13.140625 16.82421875 13.140625 16.82421875 10.5 18.625 C6.97004064 19.19665954 3.50527591 19.13717998 -0.0625 19.0625 C-1.02091797 19.06958984 -1.97933594 19.07667969 -2.96679688 19.08398438 C-9.99530883 19.01995448 -9.99530883 19.01995448 -12.26733398 17.24194336 C-13.94845296 15.03674412 -13.96653943 13.5021319 -14 10.75 C-14.0309375 9.90695313 -14.061875 9.06390625 -14.09375 8.1953125 C-12.34089415 0.60729179 -6.65302633 -0.17235819 0 0 Z " fill="#711753" transform="translate(101.5,27.375)"/>
<path d="M0 0 C2.25 1.125 2.25 1.125 4 3 C5.207644 7.07579849 5.44610971 9.08838451 3.5625 12.9375 C0.47628163 15.42152942 -1.22278458 15.68849662 -5.09375 15.4140625 C-7 15 -7 15 -9.5 13.4375 C-11.58392818 10.05111671 -11.55802097 7.90614682 -11 4 C-7.56828458 -0.34683954 -5.32566547 -1.52161871 0 0 Z " fill="#731954" transform="translate(105,8)"/>
<path d="M0 0 C1.73443359 0.00966797 1.73443359 0.00966797 3.50390625 0.01953125 C6.4375 0.1875 6.4375 0.1875 8.4375 1.1875 C8.4375 1.8475 8.4375 2.5075 8.4375 3.1875 C9.0975 3.1875 9.7575 3.1875 10.4375 3.1875 C10.48004356 5.18704746 10.47830783 7.18791636 10.4375 9.1875 C8.9154041 10.7095959 7.55539918 10.31709521 5.4375 10.3203125 C4.633125 10.32160156 3.82875 10.32289062 3 10.32421875 C2.154375 10.32035156 1.30875 10.31648438 0.4375 10.3125 C-0.408125 10.31636719 -1.25375 10.32023437 -2.125 10.32421875 C-2.929375 10.32292969 -3.73375 10.32164063 -4.5625 10.3203125 C-5.305 10.31918457 -6.0475 10.31805664 -6.8125 10.31689453 C-8.5625 10.1875 -8.5625 10.1875 -9.5625 9.1875 C-9.8125 5.75 -9.8125 5.75 -9.5625 2.1875 C-5.96639031 -0.20990646 -4.26157673 -0.05237692 0 0 Z " fill="#FAF7F9" transform="translate(101.5625,31.8125)"/>
<path d="M0 0 C0.99 0 1.98 0 3 0 C3 11.88 3 23.76 3 36 C1.68 35.67 0.36 35.34 -1 35 C-1.0246519 30.17619198 -1.04283693 25.35242033 -1.05493164 20.52856445 C-1.05997174 18.88630536 -1.06680378 17.24405077 -1.07543945 15.60180664 C-1.08751926 13.24624521 -1.09323139 10.89074291 -1.09765625 8.53515625 C-1.10281754 7.79660904 -1.10797882 7.05806183 -1.11329651 6.2971344 C-1.1134925 4.53101912 -1.06194719 2.76502854 -1 1 C-0.67 0.67 -0.34 0.34 0 0 Z " fill="#F0E6ED" transform="translate(19,89)"/>
<path d="M0 0 C3.3 0 6.6 0 10 0 C10 3.96 10 7.92 10 12 C6.7 12 3.4 12 0 12 C0 8.04 0 4.08 0 0 Z " fill="#FBF9FA" transform="translate(43,76)"/>
<path d="M0 0 C-0.58110671 3.42754467 -1.68553624 5.04538661 -4.16015625 7.453125 C-4.78857422 8.071875 -5.41699219 8.690625 -6.06445312 9.328125 C-6.72380859 9.96234375 -7.38316406 10.5965625 -8.0625 11.25 C-8.72572266 11.8996875 -9.38894531 12.549375 -10.07226562 13.21875 C-11.70829317 14.8194676 -13.35090912 16.41276193 -15 18 C-18.88028716 16.54569669 -21.38004031 15.29920849 -24 12 C-24 10.68 -24 9.36 -24 8 C-20.73045798 8.56371414 -19.17424117 9.49962266 -17 12 C-12.02632648 9.99206684 -8.94492979 5.944542 -5.33984375 2.1171875 C-3 0 -3 0 0 0 Z " fill="#6E114F" transform="translate(61,36)"/>
<path d="M0 0 C1.4540625 0.0309375 1.4540625 0.0309375 2.9375 0.0625 C3.5625 2.4375 3.5625 2.4375 3.9375 5.0625 C1.9375 7.0625 1.9375 7.0625 -0.625 7.25 C-3.0625 7.0625 -3.0625 7.0625 -4.0625 6.0625 C-4.1875 3.5625 -4.1875 3.5625 -4.0625 1.0625 C-3.0625 0.0625 -3.0625 0.0625 0 0 Z " fill="#F5EFF3" transform="translate(102.0625,11.9375)"/>
</svg>
